<?xml version="1.0" standalone="no"?>
<!DOCTYPE svg PUBLIC "-//W3C//DTD SVG 20010904//EN"
 "http://www.w3.org/TR/2001/REC-SVG-20010904/DTD/svg10.dtd">
<svg version="1.0" xmlns="http://www.w3.org/2000/svg"
 width="2000.000000pt" height="2000.000000pt" viewBox="0 0 2000.000000 2000.000000"
 preserveAspectRatio="xMidYMid meet">

<g transform="translate(0.000000,2000.000000) scale(0.100000,-0.100000)"
fill="#000000" stroke="none">
<path d="M3233 16419 c-43 -13 -73 -53 -73 -99 0 -42 23 -69 91 -103 50 -25
58 -50 17 -55 -20 -2 -28 1 -28 12 0 12 -11 16 -50 16 -45 0 -50 -2 -50 -23 0
-49 56 -87 129 -87 38 0 107 38 119 66 26 56 8 95 -58 129 -65 33 -88 66 -55
79 9 3 23 -3 32 -14 18 -21 96 -29 107 -11 10 16 -12 59 -39 77 -31 20 -99 27
-142 13z"/>
<path d="M2577 16267 c-15 -83 -27 -159 -27 -167 0 -12 10 -14 45 -12 l44 4
12 60 c7 32 15 56 20 51 4 -4 16 -32 26 -62 l18 -53 53 -2 c28 0 52 -1 52 0 0
0 -12 29 -26 64 -17 43 -22 66 -15 68 31 10 71 56 77 88 16 87 -21 114 -158
114 l-94 0 -27 -153z m176 75 c4 -1 7 -13 7 -27 0 -27 -23 -43 -60 -41 -22 1
-25 5 -21 31 1 17 5 33 7 36 3 5 43 5 67 1z"/>
<path d="M2920 16413 c0 -5 -11 -71 -25 -147 -36 -200 -44 -181 78 -181 93 0
103 2 109 20 16 50 12 55 -52 55 -33 0 -60 3 -60 8 0 4 3 17 6 30 6 19 13 22
60 22 36 0 54 4 54 13 0 6 3 22 6 35 6 21 3 22 -45 22 -50 0 -51 1 -51 30 l0
30 65 0 c57 0 65 2 65 19 0 11 3 26 6 35 5 14 -8 16 -105 16 -61 0 -111 -3
-111 -7z"/>
<path d="M3487 16408 c-2 -7 -13 -61 -23 -120 -17 -102 -17 -109 -1 -143 29
-62 106 -81 182 -46 74 34 94 70 115 211 6 41 14 83 16 93 5 14 -2 17 -43 17
l-48 0 -18 -102 c-18 -109 -36 -148 -66 -148 -56 0 -62 23 -36 157 8 43 15 81
15 86 0 13 -88 8 -93 -5z"/>
<path d="M3830 16412 c0 -5 -11 -69 -24 -143 -37 -203 -39 -184 13 -181 25 1
46 4 47 5 2 1 9 39 17 82 15 88 20 85 37 -21 l11 -72 39 2 c37 1 39 3 82 83
23 46 46 83 49 83 4 0 0 -28 -8 -61 -20 -89 -17 -102 33 -104 l41 -2 29 169
30 168 -56 0 -56 0 -50 -87 c-27 -48 -53 -96 -58 -108 -8 -17 -10 -14 -21 25
-7 25 -19 73 -25 108 l-13 62 -58 0 c-33 0 -59 -4 -59 -8z"/>
<path d="M4271 16368 c-5 -29 -17 -93 -26 -143 -8 -49 -18 -101 -21 -115 l-4
-25 107 1 c105 1 108 2 114 25 14 47 12 49 -52 49 -60 0 -60 0 -57 28 3 25 7
27 58 32 52 5 55 6 61 38 l6 32 -48 0 c-52 0 -61 6 -52 38 4 18 14 22 67 24
61 3 61 3 64 36 l3 32 -105 0 -105 0 -10 -52z"/>
<path d="M15775 15246 c-10 -7 -26 -11 -34 -8 -9 3 -12 1 -7 -6 5 -8 0 -12
-13 -12 -11 0 -31 -11 -45 -24 -26 -23 -35 -43 -15 -30 8 4 8 0 0 -15 -13 -24
-23 -28 -15 -6 14 35 -13 11 -38 -34 -26 -46 -39 -84 -18 -51 5 8 10 11 10 5
-1 -5 -7 -19 -15 -29 -18 -24 -19 -94 -3 -148 25 -86 134 -140 236 -118 60 13
102 30 102 41 0 5 6 9 13 9 14 0 68 54 85 87 10 19 9 23 -8 28 -36 11 -104 2
-133 -19 -15 -11 -23 -23 -17 -26 6 -4 -21 -6 -59 -6 -69 1 -70 1 -87 36 -34
69 -7 170 56 207 l30 17 -23 13 c-12 7 -18 12 -14 13 5 0 18 -5 30 -12 12 -6
38 -13 57 -15 21 -2 43 -13 57 -28 19 -22 30 -25 87 -24 60 1 64 3 63 23 -1
11 -8 27 -17 34 -10 9 -10 11 -1 6 10 -5 12 -3 6 7 -20 32 -41 49 -60 49 -11
1 -31 7 -45 15 -29 16 -19 20 11 4 11 -6 25 -9 32 -6 7 2 1 10 -13 17 -36 20
-171 24 -195 6z m38 -33 c-7 -2 -19 -2 -25 0 -7 3 -2 5 12 5 14 0 19 -2 13 -5z
m-10 -30 c-7 -2 -19 -2 -25 0 -7 3 -2 5 12 5 14 0 19 -2 13 -5z m77 -3 c18
-12 2 -12 -25 0 -13 6 -15 9 -5 9 8 0 22 -4 30 -9z m-186 -75 c-4 -8 -1 -15 5
-15 6 0 11 8 11 17 0 9 3 14 6 10 8 -7 -5 -47 -16 -47 -11 0 -21 30 -14 41 9
14 14 10 8 -6z m279 -212 c-7 -2 -19 -2 -25 0 -7 3 -2 5 12 5 14 0 19 -2 13
-5z m-209 -112 c4 -5 -3 -7 -14 -4 -23 6 -26 13 -6 13 8 0 17 -4 20 -9z"/>
<path d="M16145 15250 c-6 -10 15 -147 34 -220 5 -19 14 -75 21 -125 18 -146
10 -135 99 -135 42 0 81 4 87 8 19 12 34 50 28 69 -4 13 -3 15 4 4 12 -16 27
3 16 22 -4 6 -4 9 1 5 9 -9 55 73 55 97 0 9 5 13 11 9 8 -4 9 1 4 16 -4 13 -3
20 2 17 10 -6 60 91 55 106 -1 5 2 6 6 3 5 -3 22 22 38 57 16 34 30 65 32 68
1 3 -26 6 -60 5 -48 0 -66 -5 -76 -18 -7 -10 -10 -24 -6 -31 4 -6 4 -9 -1 -5
-7 7 -38 -51 -130 -245 -15 -32 -30 -55 -34 -52 -8 9 -29 131 -37 220 -4 39
-11 73 -16 76 -5 3 -6 14 -2 23 4 10 2 21 -5 25 -19 12 -119 13 -126 1z m62
-36 c-3 -3 -12 -4 -19 -1 -8 3 -5 6 6 6 11 1 17 -2 13 -5z m260 -136 c-3 -8
-6 -5 -6 6 -1 11 2 17 5 13 3 -3 4 -12 1 -19z m-238 -58 c0 -9 -4 -8 -9 5 -5
11 -9 27 -9 35 0 9 4 8 9 -5 5 -11 9 -27 9 -35z m38 -2 c-3 -8 -6 -5 -6 6 -1
11 2 17 5 13 3 -3 4 -12 1 -19z"/>
<path d="M2200 13360 l0 -180 4750 0 4750 0 0 180 0 180 -4750 0 -4750 0 0
-180z"/>
<path d="M7090 12841 c-47 -5 -168 -16 -270 -26 -111 -10 -220 -15 -272 -12
l-88 6 0 -37 c0 -20 6 -49 14 -63 13 -26 13 -27 -16 -33 -17 -3 -50 -6 -74 -6
-29 0 -44 -4 -44 -12 0 -23 47 -112 67 -131 20 -17 20 -21 6 -65 -10 -33 -13
-76 -10 -147 6 -127 9 -135 50 -126 40 9 85 -2 103 -26 7 -10 18 -42 24 -70 6
-29 14 -53 18 -53 4 0 22 9 40 20 52 32 57 54 43 180 -15 141 -4 195 37 187
15 -2 72 -13 127 -23 78 -14 154 -18 340 -18 132 -1 271 3 309 7 l68 8 -7 -76
c-11 -116 2 -220 32 -256 27 -32 43 -37 43 -14 0 9 11 37 24 64 26 50 53 67
111 73 27 3 31 8 43 58 7 30 14 98 15 150 2 85 -1 101 -25 150 -14 30 -32 71
-39 90 -31 82 -133 154 -261 185 -76 18 -291 26 -408 16z"/>
<path d="M3137 12406 c-150 -66 -154 -275 -7 -354 145 -77 322 74 270 232 -15
47 -76 110 -119 125 -43 14 -108 13 -144 -3z"/>
<path d="M3100 11929 c-30 -12 -75 -37 -100 -55 -46 -33 -101 -94 -97 -105 1
-4 -5 -15 -14 -25 -31 -35 -49 -111 -49 -209 l0 -95 390 0 390 0 0 78 c-1 189
-72 314 -225 392 -58 29 -78 34 -153 37 -70 3 -98 -1 -142 -18z"/>
<path d="M6719 11034 l-65 -65 -420 -158 c-651 -245 -612 -229 -670 -287 -219
-222 -438 -1127 -461 -1906 l-6 -218 -1449 0 -1448 0 0 -195 0 -195 1920 0
1920 0 0 -360 0 -360 -160 0 c-142 0 -166 -2 -224 -24 -117 -42 -210 -142
-239 -256 l-14 -55 -2152 -3 c-1183 -1 -2151 -6 -2151 -10 0 -5 11 -14 25 -20
14 -7 31 -17 38 -23 7 -6 104 -71 217 -145 113 -74 286 -188 385 -253 99 -65
275 -180 390 -256 116 -76 234 -153 263 -172 l52 -35 0 -174 0 -174 -138 93
c-178 121 -638 432 -769 519 -57 37 -106 68 -110 68 -5 0 -8 -399 -8 -886 l0
-886 90 -86 c50 -47 187 -178 305 -292 118 -114 309 -297 425 -408 l210 -202
4987 0 4987 0 5 43 c28 208 161 1276 201 1612 60 507 99 758 139 895 l13 45
59 0 c112 0 207 -65 340 -233 103 -129 154 -183 244 -252 104 -81 160 -144
240 -276 45 -71 126 -230 154 -297 l16 -39 62 6 c35 3 135 8 223 11 489 18
973 54 1065 81 184 53 308 199 355 417 28 127 17 339 -24 482 -35 121 -124
312 -194 419 l-45 70 -484 1 c-265 1 -486 0 -489 -2 -4 -1 4 -44 17 -95 12
-51 22 -93 21 -94 -4 -3 -691 -24 -777 -24 l-86 0 -38 108 c-21 59 -52 145
-68 192 -16 47 -43 120 -59 163 -16 43 -29 85 -29 93 0 12 -90 14 -603 14
l-604 0 -51 115 c-29 63 -52 120 -52 125 0 7 -519 10 -1493 10 l-1492 0 -46
-122 -47 -123 -266 -5 -267 -5 -9 40 c-29 120 -109 219 -219 272 -50 24 -70
28 -179 31 l-122 4 2 359 3 359 1915 3 1915 2 3 193 2 192 -1336 0 -1336 0 7
48 c13 98 -20 633 -55 907 -23 171 -72 437 -110 591 -98 395 -210 616 -331
649 -24 7 -145 52 -269 100 -124 47 -327 124 -452 171 l-226 84 -72 74 -72 74
-161 -130 c-89 -72 -168 -135 -174 -140 -11 -9 -102 66 -303 249 l-26 23 -65
-66z m513 -1581 c75 -35 152 -102 198 -171 61 -93 86 -237 59 -351 -28 -123
-124 -243 -240 -300 -308 -151 -659 67 -659 409 0 199 120 363 315 433 39 13
74 17 155 14 94 -2 112 -6 172 -34z m-1268 -121 c83 -39 149 -105 189 -190 29
-61 32 -75 32 -167 0 -92 -3 -106 -32 -167 -75 -160 -244 -249 -415 -220 -216
37 -366 238 -330 442 29 164 144 291 298 330 72 18 187 5 258 -28z m2394 24
c191 -51 321 -260 282 -453 -26 -128 -106 -228 -228 -286 -61 -29 -76 -32
-162 -32 -86 0 -101 4 -160 32 -206 100 -287 338 -185 543 23 46 111 136 155
160 87 47 203 61 298 36z m-3895 -2589 c157 -107 296 -203 430 -297 l106 -75
1 -146 0 -146 -512 -7 c-413 -5 -515 -4 -523 6 -5 7 -44 40 -85 73 -83 66
-288 234 -306 250 -7 5 -26 21 -44 35 -18 14 -60 49 -94 78 -33 28 -64 52 -69
52 -4 0 -7 59 -6 130 l1 130 489 0 489 0 123 -83z"/>
<path d="M3155 10957 c-56 -22 -76 -38 -106 -85 -48 -76 -39 -165 24 -230 45
-47 82 -62 147 -62 105 0 190 85 190 189 0 131 -139 233 -255 188z"/>
<path d="M14350 10504 c-97 -19 -160 -51 -259 -134 -132 -109 -185 -213 -162
-317 7 -29 30 -79 52 -112 46 -69 49 -106 18 -199 -17 -50 -31 -71 -69 -103
-28 -23 -55 -58 -64 -80 -22 -54 -20 -135 4 -188 20 -43 20 -45 1 -65 -30 -34
-41 -62 -41 -109 0 -85 81 -159 175 -159 47 0 99 22 113 49 8 13 26 17 88 17
94 1 147 23 181 75 34 50 30 64 -29 96 -66 36 -145 115 -179 181 -25 45 -27
62 -33 214 -4 91 -9 195 -13 233 l-6 67 55 0 c117 0 264 57 375 146 23 19 43
34 46 34 2 0 7 -20 10 -45 10 -66 46 -134 100 -187 53 -53 53 -52 41 -191 -5
-60 -3 -105 6 -140 16 -69 1 -148 -46 -247 -33 -68 -36 -80 -32 -142 6 -73 37
-140 84 -177 58 -46 166 -51 244 -11 36 19 150 133 150 151 0 5 13 9 28 9 91
0 201 164 202 301 0 55 -27 152 -54 193 -7 12 -16 38 -19 59 -10 65 -45 123
-121 199 -76 77 -82 87 -130 249 -14 47 -39 104 -56 128 -38 51 -106 96 -180
117 -30 8 -68 20 -85 26 -154 55 -174 59 -270 63 -55 2 -111 1 -125 -1z"/>
<path d="M3150 10486 c-122 -27 -213 -99 -272 -215 -30 -60 -33 -73 -37 -178
l-3 -113 391 0 391 0 0 80 c0 87 -16 180 -31 180 -6 0 -7 5 -4 10 9 15 -49
102 -95 144 -53 47 -123 82 -195 95 -69 13 -74 13 -145 -3z"/>
<path d="M3114 9538 c-137 -93 -118 -288 34 -348 83 -32 196 15 240 100 87
173 -114 356 -274 248z"/>
<path d="M3144 9090 c-112 -22 -218 -111 -271 -227 -23 -49 -28 -75 -31 -165
l-4 -108 392 0 393 0 -5 103 c-6 118 -33 200 -84 253 -17 19 -29 34 -27 34 3
0 -8 10 -24 23 -100 82 -215 111 -339 87z"/>
<path d="M14192 9003 c-6 -2 -10 -9 -6 -14 8 -14 21 -11 21 6 0 8 -1 15 -1 14
-1 0 -7 -3 -14 -6z"/>
<path d="M14091 8913 c-39 -43 -71 -82 -70 -88 0 -5 3 -4 6 3 2 6 9 12 14 12
6 0 7 -5 3 -11 -3 -6 0 -16 7 -21 10 -6 7 -7 -10 -3 -18 6 -22 4 -15 -6 6 -12
5 -12 -8 -1 -13 10 -17 10 -22 -3 -3 -8 -3 -23 0 -32 5 -15 4 -16 -5 -3 -9 13
-11 12 -11 -3 0 -10 -4 -16 -9 -12 -14 8 -33 -32 -26 -55 4 -12 2 -20 -4 -20
-6 0 -11 6 -11 13 0 6 -8 -1 -18 -18 -15 -24 -16 -36 -8 -57 5 -15 14 -25 18
-22 4 3 8 1 8 -4 0 -13 -28 -23 -35 -12 -3 4 -2 15 1 23 3 8 1 18 -5 22 -6 3
-12 0 -13 -7 0 -7 -2 -18 -2 -23 -1 -6 -12 -27 -24 -47 -13 -21 -21 -42 -18
-47 4 -5 1 -13 -5 -17 -8 -5 -9 -3 -4 6 5 8 4 11 -3 6 -6 -4 -8 -14 -5 -23 4
-11 3 -14 -5 -9 -7 4 -5 -7 4 -28 17 -34 34 -40 34 -10 0 8 -7 14 -15 14 -8 0
-15 4 -15 9 0 5 7 14 15 21 13 10 15 9 17 -11 1 -13 2 -37 4 -54 1 -16 2 -38
3 -47 3 -42 19 -13 25 44 4 34 14 74 22 90 8 15 12 39 8 52 -3 15 -1 25 9 29
8 3 19 19 25 37 7 18 7 28 2 25 -15 -9 -11 17 5 39 7 10 18 15 23 12 6 -3 17
11 25 32 8 20 29 54 46 75 16 21 33 47 36 57 3 10 21 30 40 45 19 14 34 29 34
33 -4 22 3 34 23 41 l22 8 -21 11 c-19 10 -28 4 -92 -65z m69 48 c-5 -11 -15
-23 -21 -27 -8 -4 -7 -9 2 -15 10 -6 10 -9 2 -9 -22 0 -22 17 -1 43 26 32 33
35 18 8z m-75 -86 c-3 -35 -15 -44 -15 -13 0 21 7 38 16 38 1 0 1 -11 -1 -25z
m-92 -160 c-3 -9 -8 -14 -10 -11 -3 3 -2 9 2 15 9 16 15 13 8 -4z m-36 -17
c-3 -8 -6 -5 -6 6 -1 11 2 17 5 13 3 -3 4 -12 1 -19z m-37 -58 c0 -5 -5 -10
-11 -10 -5 0 -7 5 -4 10 3 6 8 10 11 10 2 0 4 -4 4 -10z m-50 -120 c0 -5 -5
-10 -11 -10 -5 0 -7 5 -4 10 3 6 8 10 11 10 2 0 4 -4 4 -10z m25 -30 c-10 -11
-22 -17 -27 -14 -5 3 2 16 14 29 27 28 39 13 13 -15z"/>
<path d="M13795 8418 c8 -31 -13 -88 -32 -88 -6 0 -15 -5 -19 -12 -4 -7 -3 -8
4 -4 16 10 -4 -43 -25 -66 -11 -12 -13 -26 -7 -50 7 -32 8 -32 15 -8 l7 25 2
-25 c1 -14 1 -29 0 -35 -5 -19 -1 -48 8 -54 5 -3 11 -13 14 -21 3 -8 6 5 6 29
0 24 3 46 6 49 3 3 6 -33 5 -79 0 -60 -3 -78 -9 -61 -5 12 -14 22 -20 22 -5 0
-9 3 -8 8 5 18 -15 71 -28 76 -8 3 -14 12 -14 21 0 8 -4 15 -10 15 -5 0 -10
-5 -10 -11 0 -6 -6 -25 -14 -42 -41 -96 -45 -111 -20 -81 15 19 16 19 9 -1 -4
-11 -9 -29 -12 -40 -4 -16 -3 -17 6 -5 9 12 11 11 11 -8 0 -14 -4 -21 -11 -17
-6 4 -13 -2 -16 -14 -3 -12 -9 -21 -13 -21 -5 0 -12 -9 -15 -20 -4 -11 -11
-18 -16 -15 -5 3 -6 -1 -2 -10 3 -10 0 -21 -8 -26 -11 -7 -11 -9 2 -9 21 0 29
-19 18 -45 -7 -17 -8 -16 -8 8 -1 15 -5 27 -11 27 -12 0 -24 -45 -17 -64 3 -8
2 -16 -4 -18 -5 -2 -12 -21 -15 -43 -4 -31 -3 -37 6 -25 9 12 11 8 9 -20 -3
-52 0 -70 11 -70 5 0 7 7 4 15 -4 8 -2 15 4 15 5 0 13 -7 16 -16 4 -11 13 -14
29 -10 46 14 57 15 57 5 0 -8 125 -7 150 2 3 1 8 1 11 1 4 -1 6 4 6 11 -1 30
4 47 13 47 7 0 7 -6 0 -20 -6 -11 -8 -20 -6 -20 3 0 12 13 20 29 14 26 14 29
-2 27 -12 -1 -17 7 -19 29 l-2 30 8 -30 c7 -27 9 -28 15 -10 4 11 11 28 16 37
7 12 5 18 -8 21 -15 4 -14 5 2 6 10 0 24 -7 31 -16 11 -15 13 -14 24 8 11 23
11 23 -3 5 -21 -26 -20 -7 0 23 12 16 19 20 24 11 5 -7 7 0 6 16 -2 27 -33
103 -47 114 -8 6 -20 59 -20 85 0 16 -2 17 -9 5 -5 -8 -10 -12 -12 -10 -20 31
-29 57 -32 93 -2 23 -1 30 1 15 2 -16 8 -28 13 -28 5 0 10 -6 13 -12 2 -7 2
-2 -1 12 -2 14 -4 71 -3 127 2 91 0 103 -17 112 -11 6 -22 8 -24 5 -3 -3 -5
12 -4 33 0 22 -7 49 -17 63 l-18 25 6 -27z m52 -240 c-2 -13 -4 -3 -4 22 0 25
2 35 4 23 2 -13 2 -33 0 -45z m-90 10 c-3 -7 -5 -2 -5 12 0 14 2 19 5 13 2 -7
2 -19 0 -25z m-65 -146 c-7 -2 -10 -8 -6 -13 3 -5 0 -9 -6 -9 -7 0 -9 -7 -5
-17 5 -14 3 -15 -5 -7 -9 9 -9 17 -1 32 6 11 11 29 11 39 0 15 -2 16 -10 3
-14 -21 -12 -3 2 23 11 21 12 21 22 -12 7 -26 7 -36 -2 -39z m28 -27 c0 -8 -7
-15 -15 -15 -9 0 -12 6 -9 15 4 8 10 15 15 15 5 0 9 -7 9 -15z m150 -56 c0
-11 -4 -17 -10 -14 -5 3 -10 13 -10 21 0 8 5 14 10 14 6 0 10 -9 10 -21z
m-193 -21 c-3 -8 -6 -5 -6 6 -1 11 2 17 5 13 3 -3 4 -12 1 -19z m83 -37 c0
-34 -30 -61 -67 -61 -30 0 -29 14 2 28 14 7 30 23 37 37 15 34 28 32 28 -4z
m176 -97 c-8 -9 -13 -9 -18 0 -4 6 -20 12 -35 12 -63 3 -67 4 -57 13 16 17 98
18 110 2 8 -11 8 -18 0 -27z m-156 -69 c0 -25 -4 -45 -10 -45 -11 0 -14 73 -3
83 11 12 13 8 13 -38z m-174 -17 c4 4 2 -1 -5 -10 -14 -19 -6 -42 12 -31 7 4
5 -1 -3 -11 -13 -17 -14 -17 -21 1 -6 17 -7 17 -12 -2 -3 -11 -3 -2 0 19 5 35
4 38 -12 32 -15 -6 -16 -4 -4 10 12 14 14 14 24 0 7 -9 16 -12 21 -8z m137
-43 c-2 -5 -23 -10 -48 -10 -47 -2 -50 10 -5 17 35 6 55 3 53 -7z m95 -7 c-6
-18 -28 -21 -28 -4 0 9 7 16 16 16 9 0 14 -5 12 -12z m-88 -57 c0 -5 -9 -7
-20 -4 -11 3 -20 7 -20 9 0 2 9 4 20 4 11 0 20 -4 20 -9z"/>
<path d="M13612 7955 c-6 -14 -8 -25 -3 -25 8 0 23 41 17 47 -1 2 -8 -8 -14
-22z"/>
<path d="M13897 7713 c-4 -3 -7 -11 -7 -17 0 -6 5 -5 12 2 6 6 9 14 7 17 -3 3
-9 2 -12 -2z"/>
<path d="M16345 6938 c-2 -7 -8 -56 -15 -108 -17 -146 -66 -384 -112 -542
-122 -426 -355 -911 -608 -1263 l-79 -110 -1002 2 c-551 1 -1005 0 -1009 -2
-4 -3 3 -49 16 -102 30 -124 69 -359 89 -533 12 -114 45 -577 45 -647 0 -22 2
-23 176 -25 l176 -3 54 -150 c29 -82 72 -202 95 -265 98 -276 105 -290 158
-290 40 0 81 35 81 70 0 25 -27 107 -75 230 -8 19 -32 87 -55 150 -22 63 -45
124 -49 135 -14 32 -41 110 -41 118 0 4 129 7 286 7 225 0 285 -3 281 -12 -2
-7 -25 -83 -51 -168 -25 -85 -57 -189 -71 -230 -74 -226 -96 -314 -85 -341 23
-54 98 -65 131 -19 16 21 88 248 211 668 l31 102 466 0 466 -1 37 -107 c20
-59 59 -170 87 -247 27 -77 66 -185 86 -240 20 -55 45 -109 55 -120 24 -24 81
-25 104 -3 37 37 31 63 -83 376 -61 166 -115 311 -121 322 -11 20 -6 20 375
20 242 0 385 4 385 10 0 5 -18 71 -40 147 -79 270 -124 511 -155 837 -19 204
-20 656 -1 871 14 156 35 337 39 342 1 1 74 3 161 4 l158 2 9 25 c10 26 3 84
-14 117 -5 11 -47 57 -93 103 -60 61 -94 105 -125 165 -38 73 -43 89 -43 152
-1 54 6 87 27 142 49 124 41 148 -81 239 -93 69 -149 126 -165 167 -5 13 -19
17 -57 17 -32 0 -52 -5 -55 -12z"/>
<path d="M13055 4228 c-46 -146 -125 -371 -164 -468 -28 -69 -51 -131 -51
-137 0 -8 14 -13 35 -13 19 0 35 -2 35 -5 0 -8 -75 -258 -144 -482 -71 -231
-73 -258 -20 -282 34 -15 50 -14 79 5 27 18 29 23 169 489 l82 270 52 3 c35 2
52 7 52 17 0 7 -20 109 -44 227 -24 117 -49 252 -56 301 -12 85 -17 100 -25
75z"/>
<path d="M12406 3451 c-20 -43 -113 -138 -196 -200 -55 -41 -127 -67 -398
-147 -106 -31 -117 -40 -102 -79 14 -36 43 -61 109 -92 102 -49 278 -42 523
21 73 19 137 32 141 29 4 -3 15 -22 24 -44 24 -61 45 -66 83 -22 45 51 107
184 125 268 8 39 15 104 15 146 l0 76 -137 38 c-76 21 -145 40 -153 42 -10 2
-22 -11 -34 -36z"/>
<path d="M13590 2788 c-41 -10 -109 -28 -151 -39 l-77 -21 -11 -59 c-36 -180
-88 -285 -205 -407 -142 -150 -184 -210 -170 -247 22 -55 180 -66 319 -21 152
48 275 144 349 270 22 37 43 69 49 73 12 7 26 -13 33 -49 14 -61 65 -61 85 -1
17 52 5 172 -26 271 -38 119 -95 252 -109 251 -6 -1 -45 -10 -86 -21z"/>
</g>
</svg>
